<?xml version="1.0" encoding="utf-8"?>
<!-- Generator: Adobe Illustrator 21.1.0, SVG Export Plug-In . SVG Version: 6.00 Build 0)  -->
<svg version="1.0" id="Layer_1" xmlns="http://www.w3.org/2000/svg" xmlns:xlink="http://www.w3.org/1999/xlink" x="0px" y="0px"
	 viewBox="0 0 200 97" enable-background="new 0 0 200 97" xml:space="preserve">
<g>
	<path fill="#58595B" d="M46.7,15.5h1.9l2.9,7c0.4,0.9,0.7,2.2,0.7,2.2s0.3-1.4,0.7-2.2l2.9-7h1.8l-5.3,12.5H52L46.7,15.5z"/>
	<path fill="#58595B" d="M60.1,15.5h1.7v12.3h-1.7V15.5z"/>
	<path fill="#58595B" d="M64.2,25.3l1.4-0.8c0.5,1.1,1.5,2,3.1,2c1.4,0,2.4-0.7,2.4-1.9c0-1.1-0.7-1.7-2.2-2.4l-1-0.4
		c-1.7-0.7-2.8-1.7-2.8-3.5c0-1.9,1.5-3.1,3.4-3.1c1.7,0,2.8,0.7,3.5,1.9L70.7,18c-0.5-0.8-1.1-1.3-2.2-1.3c-1.1,0-1.8,0.6-1.8,1.6
		c0,1,0.5,1.4,1.7,2l1,0.4c2.1,0.9,3.3,1.9,3.3,3.9c0,2.1-1.6,3.3-4.1,3.3C66.4,28,64.9,26.8,64.2,25.3z"/>
	<path fill="#58595B" d="M75.4,23.4v-7.9h1.7v7.9c0,2.2,1.1,3.1,2.9,3.1c1.8,0,2.9-1,2.9-3.1v-7.9h1.7v7.9c0,3-1.9,4.6-4.6,4.6
		C77.3,28,75.4,26.4,75.4,23.4z"/>
	<path fill="#58595B" d="M91.7,15.3H92l5.3,12.5h-1.8L94.7,26h-5.8l-0.7,1.8h-1.7L91.7,15.3z M94.2,24.6l-1.8-4.4
		c-0.3-0.8-0.6-1.9-0.6-1.9s-0.3,1.1-0.6,1.9l-1.8,4.4H94.2z"/>
	<path fill="#58595B" d="M99.8,15.5h1.7v10.8h5.7v1.5h-7.4V15.5z"/>
	<path fill="#58595B" d="M119.5,15.3h0.2l5.3,12.5h-1.8l-0.7-1.8h-5.8l-0.7,1.8h-1.7L119.5,15.3z M122,24.6l-1.8-4.4
		c-0.3-0.8-0.6-1.9-0.6-1.9s-0.3,1.1-0.6,1.9l-1.8,4.4H122z"/>
	<path fill="#58595B" d="M136.2,27.8h-1.9l-2.2-3.3c-0.3,0.1-0.7,0.1-1.1,0.1h-1.6v3.2h-1.7V15.5h3.4c3.3,0,5.2,1.8,5.2,4.6
		c0,1.9-0.9,3.3-2.5,4L136.2,27.8z M130.8,23.1c2.5,0,3.5-1.3,3.5-3.1c0-1.8-0.9-3.1-3.5-3.1h-1.6v6.1H130.8z"/>
	<path fill="#58595B" d="M141.6,17h-3.8v-1.5h9.3V17h-3.8v10.8h-1.7V17z"/>
	<path fill="#58595B" d="M149.8,15.5h1.7v12.3h-1.7V15.5z"/>
	<path fill="#58595B" d="M153.9,25.3l1.4-0.8c0.5,1.1,1.5,2,3.1,2c1.4,0,2.4-0.7,2.4-1.9c0-1.1-0.7-1.7-2.2-2.4l-1-0.4
		c-1.7-0.7-2.8-1.7-2.8-3.5c0-1.9,1.5-3.1,3.4-3.1c1.7,0,2.8,0.7,3.5,1.9l-1.3,0.9c-0.5-0.8-1.1-1.3-2.2-1.3c-1.1,0-1.8,0.6-1.8,1.6
		c0,1,0.5,1.4,1.7,2l1,0.4c2.1,0.9,3.3,1.9,3.3,3.9c0,2.1-1.6,3.3-4.1,3.3C156.2,28,154.6,26.8,153.9,25.3z"/>
	<path fill="#58595B" d="M167.7,17h-3.8v-1.5h9.3V17h-3.8v10.8h-1.7V17z"/>
	<path fill="#58595B" d="M32.5,32.2h0.4l10.7,23.7h-5l-1.1-2.7H28l-1.1,2.7h-4.6L32.5,32.2z M35.7,49.1l-1.7-4.1
		c-0.7-1.7-1.4-4.2-1.4-4.2s-0.7,2.6-1.4,4.2l-1.7,4.1H35.7z"/>
	<path fill="#58595B" d="M53.5,44.9c-1.2-1.1-2.8-3.2-2.8-3.2s0.3,2.6,0.3,4.3v9.8h-4.5V32.2H47l11.8,11.1c1.1,1.1,2.7,3.2,2.7,3.2
		s-0.3-2.7-0.3-4.3v-9.8h4.5V56h-0.5L53.5,44.9z"/>
	<path fill="#58595B" d="M75.8,36.6h-6.7v-4.2h18.1v4.2h-6.7v19.2h-4.8V36.6z"/>
	<path fill="#58595B" d="M88.4,44.1c0-6.9,5.4-12,12.1-12c6.7,0,12.1,5.1,12.1,12s-5.4,12-12.1,12C93.8,56.1,88.4,51,88.4,44.1z
		 M107.6,44.1c0-4.4-2.9-7.7-7.1-7.7c-4.3,0-7.1,3.3-7.1,7.7s2.9,7.7,7.1,7.7C104.8,51.8,107.6,48.5,107.6,44.1z"/>
	<path fill="#58595B" d="M123.4,44.9c-1.2-1.1-2.8-3.2-2.8-3.2s0.3,2.6,0.3,4.3v9.8h-4.5V32.2h0.5l11.8,11.1
		c1.1,1.1,2.7,3.2,2.7,3.2s-0.3-2.7-0.3-4.3v-9.8h4.5V56h-0.5L123.4,44.9z"/>
	<path fill="#58595B" d="M140.5,32.4h4.8v23.5h-4.8V32.4z"/>
	<path fill="#58595B" d="M149.2,44.1c0-6.9,5.4-12,12.1-12c6.7,0,12.1,5.1,12.1,12s-5.4,12-12.1,12C154.6,56.1,149.2,51,149.2,44.1z
		 M168.4,44.1c0-4.4-2.9-7.7-7.1-7.7c-4.3,0-7.1,3.3-7.1,7.7s2.9,7.7,7.1,7.7C165.6,51.8,168.4,48.5,168.4,44.1z"/>
	<path fill="#58595B" d="M46.5,75.4v-15h4.8v14.7c0,3.4,1.5,4.7,4.7,4.7c3.2,0,4.6-1.3,4.6-4.7V60.4h4.8v15c0,5.9-4.1,8.8-9.4,8.8
		C50.6,84.2,46.5,81.3,46.5,75.4z"/>
	<path fill="#58595B" d="M69.2,72.1c0-6.9,4.9-12,11.9-12c3.8,0,6.6,1,8.5,3.2l-3.3,3.2c-1.2-1.2-2.5-2.1-5.2-2.1
		c-4.2,0-7,3.3-7,7.7s2.8,7.7,7.7,7.7c1.5,0,3.4-0.3,4.6-0.9v-3.4h-5.6v-4.2h10v10.1c-1.3,1.1-4.7,2.7-9,2.7
		C74.3,84.2,69.2,79.1,69.2,72.1z"/>
	<path fill="#58595B" d="M103,60.2h0.4l10.7,23.7h-5l-1.1-2.7h-9.5l-1.1,2.7h-4.6L103,60.2z M106.3,77.2l-1.7-4.1
		c-0.7-1.7-1.4-4.2-1.4-4.2s-0.7,2.6-1.4,4.2l-1.7,4.1H106.3z"/>
	<path fill="#58595B" d="M134.3,83.9h-5.6l-3.8-5.9c-0.4,0.1-0.9,0.1-1.4,0.1h-1.6v5.8h-4.8V60.4h6.5c6.5,0,10.4,3.1,10.4,8.9
		c0,3.7-1.6,6-4.5,7.3L134.3,83.9z M123.4,73.8c3.9,0,5.6-1.2,5.6-4.6s-1.8-4.6-5.6-4.6h-1.5v9.2H123.4z"/>
	<path fill="#58595B" d="M143,64.6h-6.7v-4.2h18.1v4.2h-6.7v19.2H143V64.6z"/>
	<path fill="#58595B" d="M157.8,60.4h15.5v4.2h-10.6v7.5h9.4v4.1h-9.4v3.4h11.1v4.2h-15.9V60.4z"/>
</g>
</svg>
